<svg width="145" height="146" viewBox="0 0 145 146" fill="none" xmlns="http://www.w3.org/2000/svg">
<path d="M117 58.5C117 71.4375 112.781 83.5312 105.75 93.0938L141.188 128.812C144.844 132.188 144.844 138.094 141.188 141.469C137.812 145.125 131.906 145.125 128.531 141.469L92.8125 105.75C83.25 113.062 71.1562 117 58.5 117C26.1562 117 0 90.8438 0 58.5C0 26.4375 26.1562 0 58.5 0C90.5625 0 117 26.4375 117 58.5ZM29.25 60.75V78.75C29.25 82.6875 32.0625 85.5 36 85.5C39.6562 85.5 42.75 82.6875 42.75 78.75V60.75C42.75 57.0938 39.6562 54 36 54C32.0625 54 29.25 57.0938 29.25 60.75ZM51.75 33.75V78.75C51.75 82.6875 54.5625 85.5 58.5 85.5C62.1562 85.5 65.25 82.6875 65.25 78.75V33.75C65.25 30.0938 62.1562 27 58.5 27C54.5625 27 51.75 30.0938 51.75 33.75ZM74.25 51.75V78.75C74.25 82.6875 77.0625 85.5 81 85.5C84.6562 85.5 87.75 82.6875 87.75 78.75V51.75C87.75 48.0938 84.6562 45 81 45C77.0625 45 74.25 48.0938 74.25 51.75Z" fill="white"/>
</svg>
