<svg width="435" height="149" viewBox="0 0 435 149" fill="none" xmlns="http://www.w3.org/2000/svg">
<g clip-path="url(#clip0_309_3781)">
<path d="M86.6653 79.3569L82.5549 98.8382H33.2844L23.3098 145.869H0L23.765 33.8514H103.348L99.157 53.5602H42.8841L37.3947 79.3569H86.6653Z" fill="white"/>
<path d="M277.334 43.3647C286.479 53.6673 288.862 69.0945 284.497 89.6328C280.186 109.77 271.216 125.197 257.613 135.901C247.303 144.625 234.129 148.987 218.089 148.987C202.05 148.987 190.696 144.625 184.042 135.901C174.951 125.197 172.568 109.77 176.879 89.6328C181.243 69.0811 190.201 53.6673 203.763 43.3647C214.073 34.6409 227.247 30.279 243.287 30.279C259.327 30.279 270.68 34.6409 277.321 43.3647H277.334ZM239.11 50.135C229.818 50.135 221.677 53.5602 214.702 60.4108C207.726 67.2614 202.88 77.0021 200.189 89.6328C197.497 102.264 198.18 112.004 202.25 118.855C206.307 125.705 212.988 129.131 222.28 129.131C231.572 129.131 239.685 125.705 246.607 118.855C253.529 112.004 258.349 102.264 261.04 89.6328C263.678 77.0556 263.008 67.3283 259.019 60.451C255.029 53.5736 248.401 50.135 239.11 50.135Z" fill="white"/>
<path d="M357.56 80.2802L358.176 58.5911L349.647 80.2802L322.16 145.882H300.376L292.383 33.7043H317.286L318.424 97.9418L317.808 115.831L324.811 98.3298L351.24 33.7177H375.996L375.608 97.9552L375.233 115.844L382.315 98.6509L411.182 33.731H435.013L379.571 145.909H357.185L357.56 80.3069V80.2802Z" fill="white"/>
<path d="M110.524 97.808L202.692 38.6282L224.636 106.438L368.672 27.6699" stroke="#4CB4AC" stroke-width="20" stroke-miterlimit="10"/>
<path d="M342.605 89.6328L368.672 27.6699L304.072 13.0455" stroke="#4CB4AC" stroke-width="20" stroke-miterlimit="10"/>
<path d="M230.594 128.141C227.93 128.796 225.158 129.131 222.267 129.131C212.975 129.131 206.294 125.705 202.237 118.855C198.18 112.004 197.484 102.264 200.175 89.6328C202.866 77.0021 207.7 67.2614 214.689 60.4108C219.455 55.7412 224.757 52.6638 230.594 51.1786V31.2959C220.151 33.0487 211.207 37.0627 203.763 43.3647C190.214 53.6673 181.243 69.0945 176.879 89.6328C172.568 109.77 174.951 125.197 184.042 135.901C190.696 144.625 202.036 148.987 218.089 148.987C222.481 148.987 226.645 148.652 230.594 147.997V128.127V128.141Z" fill="white"/>
<path d="M134.53 33.7043L114.956 125.719H170.546L166.275 145.882H87.2275L111.059 33.7043H134.517H134.53Z" fill="white"/>
<path d="M318.411 97.9284L317.795 115.818L324.797 98.3164L351.227 33.7043H375.982L375.594 97.9418L375.219 115.831L382.302 98.6376L411.168 33.7177H435L379.557 145.896H357.171L357.546 80.2935L358.162 58.6045L349.633 80.2935L322.146 145.896H300.363" fill="white"/>
</g>
<defs>
<clipPath id="clip0_309_3781">
<rect width="435" height="149" fill="white"/>
</clipPath>
</defs>
</svg>
