<svg width="50" height="51" viewBox="0 0 50 51" fill="none" xmlns="http://www.w3.org/2000/svg">
<path fill-rule="evenodd" clip-rule="evenodd" d="M5.55556 50.2478H44.4444C47.5127 50.2478 50 47.7605 50 44.6922V5.80336C50 2.73511 47.5127 0.247803 44.4444 0.247803H5.55556C2.48731 0.247803 0 2.73511 0 5.80336V44.6922C0 47.7605 2.48731 50.2478 5.55556 50.2478Z" fill="white"/>
<path fill-rule="evenodd" clip-rule="evenodd" d="M43.0554 43.3034H35.6357V30.666C35.6357 27.2011 34.3192 25.2649 31.5768 25.2649C28.5934 25.2649 27.0347 27.2798 27.0347 30.666V43.3034H19.8842V19.2293H27.0347V22.4721C27.0347 22.4721 29.1846 18.4938 34.2933 18.4938C39.3997 18.4938 43.0554 21.612 43.0554 28.0612V43.3034ZM11.3536 16.077C8.91799 16.077 6.94434 14.0879 6.94434 11.6346C6.94434 9.1814 8.91799 7.19226 11.3536 7.19226C13.7892 7.19226 15.7617 9.1814 15.7617 11.6346C15.7617 14.0879 13.7892 16.077 11.3536 16.077ZM7.66139 43.3034H15.1175V19.2293H7.66139V43.3034Z" fill="black"/>
</svg>
