<?xml version="1.0" standalone="no"?>
<!DOCTYPE svg PUBLIC "-//W3C//DTD SVG 20010904//EN"
 "http://www.w3.org/TR/2001/REC-SVG-20010904/DTD/svg10.dtd">
<svg version="1.0" xmlns="http://www.w3.org/2000/svg"
 width="370.000000pt" height="370.000000pt" viewBox="0 0 370.000000 370.000000"
 preserveAspectRatio="xMidYMid meet">
<metadata>
Created by potrace 1.14, written by Peter Selinger 2001-2017
</metadata>
<g transform="translate(0.000000,370.000000) scale(0.100000,-0.100000)"
fill="#000000" stroke="none">
<path d="M3500 2384 c-47 -25 -119 -63 -160 -84 -121 -63 -116 -56 -81 -123
42 -80 41 -79 54 -69 7 5 20 12 29 15 15 5 16 3 6 -21 -7 -15 -15 -31 -19 -37
-6 -9 -86 -161 -148 -283 -22 -44 -34 -46 -73 -10 -7 7 -40 33 -73 58 -33 25
-62 47 -65 50 -3 3 -25 21 -50 40 -25 19 -46 38 -48 42 -11 25 -34 -1 -57 -64
-15 -40 -34 -86 -41 -102 -8 -16 -14 -34 -14 -41 0 -6 -9 -30 -20 -53 -11 -22
-20 -47 -20 -55 0 -7 -4 -17 -9 -23 -4 -5 -15 -29 -24 -54 -8 -25 -33 -91 -55
-148 l-40 -102 36 -16 c21 -9 53 -22 74 -29 36 -13 36 -13 48 18 7 18 16 41
21 52 5 11 39 99 75 195 36 96 67 177 69 178 3 3 157 -110 175 -128 10 -10 95
-77 107 -83 13 -8 36 32 163 278 46 88 97 186 113 218 l30 58 13 -30 12 -29
68 14 c37 8 70 16 72 19 2 2 -1 35 -8 72 -7 37 -14 75 -15 83 -4 22 -19 104
-20 110 -1 3 -5 25 -9 50 -10 61 -16 80 -24 80 -4 0 -45 -21 -92 -46z"/>
<path d="M38 2282 c-17 -3 -18 -35 -18 -504 l0 -500 153 4 c134 3 157 6 194
26 51 27 90 76 109 137 17 57 19 609 3 670 -23 84 -85 142 -169 160 -37 8
-242 13 -272 7z m238 -147 c61 -11 65 -33 64 -361 -1 -177 -5 -294 -12 -309
-14 -31 -48 -45 -108 -45 l-50 0 0 363 0 362 36 -1 c19 -1 51 -5 70 -9z"/>
<path d="M769 2279 c-7 -4 -69 -255 -93 -379 -3 -14 -28 -126 -55 -250 -53
-234 -57 -249 -65 -290 -3 -14 -8 -37 -12 -52 l-6 -28 76 0 c65 0 76 2 77 18
0 9 2 24 4 32 2 8 9 42 15 75 6 33 13 67 15 75 4 12 23 15 95 14 49 0 93 -3
96 -7 3 -3 14 -49 25 -103 10 -53 21 -99 23 -102 5 -4 137 -4 142 1 1 1 -6 40
-18 87 -11 47 -21 94 -23 105 -1 11 -24 112 -49 225 -26 113 -48 214 -50 225
-2 11 -13 58 -24 105 -11 47 -28 122 -38 168 -10 45 -20 83 -23 83 -21 4 -105
3 -112 -2z m75 -404 c6 -29 10 -50 21 -105 2 -14 7 -36 9 -50 3 -14 8 -40 12
-57 l7 -33 -72 0 c-40 0 -70 4 -67 9 3 5 8 26 12 47 3 22 12 71 20 109 8 39
17 86 21 105 3 19 7 42 8 50 2 8 4 20 5 25 2 9 9 -21 24 -100z"/>
<path d="M1031 2280 c-5 -4 -7 -83 -2 -126 1 -8 29 -11 82 -11 l81 1 0 -431
-1 -432 32 -3 c18 -2 51 -1 75 1 l42 3 0 429 c0 336 3 429 13 430 6 0 43 1 82
2 l70 2 0 68 c0 39 -4 67 -10 68 -35 4 -458 3 -464 -1z"/>
<path d="M1645 2280 c-1 -3 -11 -41 -21 -85 -10 -44 -18 -82 -19 -85 -3 -13
-17 -91 -17 -97 0 -5 -4 -18 -9 -31 -5 -13 -11 -35 -14 -50 -2 -15 -23 -108
-45 -207 -23 -99 -44 -191 -46 -205 -3 -14 -15 -72 -28 -130 -14 -58 -24 -106
-23 -107 4 -3 62 -5 104 -4 l41 1 12 53 c6 28 14 70 17 92 9 69 11 70 107 69
48 0 91 -5 95 -10 5 -5 17 -53 26 -106 l17 -96 70 -4 c46 -2 72 1 75 8 2 6 -3
38 -11 70 -8 33 -17 70 -20 84 -6 31 -22 105 -74 335 -23 99 -43 191 -46 205
-13 63 -37 171 -53 235 l-18 70 -58 0 c-33 0 -60 -2 -62 -5z m84 -415 c12 -60
24 -121 27 -135 2 -14 7 -42 10 -62 l6 -38 -66 0 c-36 0 -66 4 -66 9 0 5 6 40
14 78 8 37 17 84 20 103 3 19 10 53 16 75 5 22 9 41 10 43 0 1 0 12 0 24 0 39
7 15 29 -97z"/>
<path d="M2307 2282 c-19 -2 -27 -9 -26 -20 3 -32 -1 -41 -31 -76 -32 -35 -85
-61 -130 -61 -25 0 -25 -1 -25 -80 l0 -80 75 -1 c41 -1 80 -2 86 -3 9 -1 12
-90 12 -328 1 -181 1 -338 1 -349 1 -21 5 -21 129 -20 l127 1 1 508 c0 348 -3
507 -10 508 -30 3 -185 4 -209 1z"/>
<path d="M2670 2259 c-16 -10 -31 -23 -31 -29 -4 -30 -3 -37 11 -56 8 -11 30
-24 49 -30 45 -12 53 -34 13 -34 -17 0 -32 6 -35 13 -3 8 -12 5 -28 -10 -30
-30 -16 -44 48 -50 55 -6 90 15 98 56 6 32 -10 49 -63 72 -60 26 -42 49 19 25
20 -9 56 29 38 40 -32 20 -89 21 -119 3z"/>
<path d="M2830 2240 c0 -28 2 -30 30 -25 l30 5 0 -75 c0 -41 3 -75 8 -76 4 0
15 -2 25 -4 18 -3 18 -4 21 90 l1 60 33 -1 c29 -1 32 2 29 25 -4 25 -5 26 -90
28 l-87 2 0 -29z"/>
</g>
</svg>
