<svg width="164" height="144" viewBox="0 0 164 144" fill="none" xmlns="http://www.w3.org/2000/svg">
<path d="M47 0C41.9375 0 38 4.21875 38 9C38 14.0625 41.9375 18 47 18H61.0625L4.53125 74.8125C0.875 78.1875 0.875 84.0938 4.53125 87.4688C7.90625 91.125 13.8125 91.125 17.1875 87.4688L74 30.9375V45C74 50.0625 77.9375 54 83 54C87.7812 54 92 50.0625 92 45V9C92 4.21875 87.7812 0 83 0H47ZM164 22.5C164 15.1875 157.812 9 150.5 9C142.906 9 137 15.1875 137 22.5C137 30.0938 142.906 36 150.5 36C157.812 36 164 30.0938 164 22.5ZM128 58.5C128 51.1875 121.812 45 114.5 45C106.906 45 101 51.1875 101 58.5C101 66.0938 106.906 72 114.5 72C121.812 72 128 66.0938 128 58.5ZM114.5 108C121.812 108 128 102.094 128 94.5C128 87.1875 121.812 81 114.5 81C106.906 81 101 87.1875 101 94.5C101 102.094 106.906 108 114.5 108ZM128 130.5C128 123.188 121.812 117 114.5 117C106.906 117 101 123.188 101 130.5C101 138.094 106.906 144 114.5 144C121.812 144 128 138.094 128 130.5ZM164 130.5C164 123.188 157.812 117 150.5 117C142.906 117 137 123.188 137 130.5C137 138.094 142.906 144 150.5 144C157.812 144 164 138.094 164 130.5ZM78.5 108C85.8125 108 92 102.094 92 94.5C92 87.1875 85.8125 81 78.5 81C70.9062 81 65 87.1875 65 94.5C65 102.094 70.9062 108 78.5 108ZM92 130.5C92 123.188 85.8125 117 78.5 117C70.9062 117 65 123.188 65 130.5C65 138.094 70.9062 144 78.5 144C85.8125 144 92 138.094 92 130.5ZM42.5 144C49.8125 144 56 138.094 56 130.5C56 123.188 49.8125 117 42.5 117C34.9062 117 29 123.188 29 130.5C29 138.094 34.9062 144 42.5 144ZM164 94.5C164 87.1875 157.812 81 150.5 81C142.906 81 137 87.1875 137 94.5C137 102.094 142.906 108 150.5 108C157.812 108 164 102.094 164 94.5ZM150.5 72C157.812 72 164 66.0938 164 58.5C164 51.1875 157.812 45 150.5 45C142.906 45 137 51.1875 137 58.5C137 66.0938 142.906 72 150.5 72Z" fill="white"/>
</svg>
