<svg width="180" height="126" viewBox="0 0 180 126" fill="none" xmlns="http://www.w3.org/2000/svg">
<path d="M51.75 15.75C51.75 24.4688 44.4375 31.5 36 31.5C27.2812 31.5 20.25 24.4688 20.25 15.75C20.25 7.3125 27.2812 0 36 0C44.4375 0 51.75 7.3125 51.75 15.75ZM18 60.1875C15.1875 63.2812 13.5 67.5 13.5 72C13.5 76.7812 15.1875 81 18 84.0938V60.1875ZM58.5 46.4062C50.0625 53.7188 45 64.6875 45 76.5C45 86.3438 48.375 95.0625 54 102.094V108C54 113.062 49.7812 117 45 117H27C21.9375 117 18 113.062 18 108V100.688C7.3125 95.625 0 84.6562 0 72C0 54.8438 14.0625 40.5 31.5 40.5H40.5C47.25 40.5 53.4375 42.75 58.5 46.4062ZM126 108V102.094C131.625 95.0625 135 86.3438 135 76.5C135 64.6875 129.656 53.7188 121.219 46.4062C126.281 42.75 132.75 40.5 139.5 40.5H148.5C165.656 40.5 180 54.8438 180 72C180 84.6562 172.406 95.625 162 100.688V108C162 113.062 157.781 117 153 117H135C129.938 117 126 113.062 126 108ZM159.75 15.75C159.75 24.4688 152.438 31.5 144 31.5C135.281 31.5 128.25 24.4688 128.25 15.75C128.25 7.3125 135.281 0 144 0C152.438 0 159.75 7.3125 159.75 15.75ZM162 60.1875V84.0938C164.812 81 166.5 76.7812 166.5 72.2812C166.5 67.5 164.812 63.2812 162 60.1875ZM90 36C79.875 36 72 28.125 72 18C72 8.15625 79.875 0 90 0C99.8438 0 108 8.15625 108 18C108 28.125 99.8438 36 90 36ZM67.5 76.5C67.5 81.2812 69.1875 85.2188 72 88.5938V64.6875C69.1875 67.7812 67.5 72 67.5 76.5ZM108 64.6875V88.5938C110.812 85.5 112.5 81.2812 112.5 76.7812C112.5 72 110.812 67.7812 108 64.6875ZM126 76.5C126 89.1562 118.406 100.125 108 105.188V117C108 122.062 103.781 126 99 126H81C75.9375 126 72 122.062 72 117V105.188C61.3125 100.125 54 89.1562 54 76.5C54 59.3438 68.0625 45 85.5 45H94.5C111.656 45 126 59.3438 126 76.5Z" fill="white"/>
</svg>
